<?xml version="1.0" encoding="UTF-8" standalone="no"?>
<!DOCTYPE svg PUBLIC "-//W3C//DTD SVG 1.1//EN" "http://www.w3.org/Graphics/SVG/1.1/DTD/svg11.dtd">
<svg width="100%" height="100%" viewBox="0 0 512 512" version="1.1" xmlns="http://www.w3.org/2000/svg" xmlns:xlink="http://www.w3.org/1999/xlink" xml:space="preserve" xmlns:serif="http://www.serif.com/" style="fill-rule:evenodd;clip-rule:evenodd;stroke-linejoin:round;stroke-miterlimit:2;">
    <g transform="matrix(1.00248,0,0,1.00248,-6.47214,0.55472)">
        <path d="M508.476,131.485L508.476,378.14C508.476,446.206 453.215,501.467 385.149,501.467L138.494,501.467C70.428,501.467 15.167,446.206 15.167,378.14L15.167,131.485C15.167,63.419 70.428,8.158 138.494,8.158L385.149,8.158C453.215,8.158 508.476,63.419 508.476,131.485Z" style="fill:rgb(214,232,255);"/>
    </g>
    <path id="Path-0" serif:id="Path 0" d="M399.3,32.1C407,32 412,32.5 417.2,33.9C421.2,35 427,36.8 430,37.9C433,39 439,42.2 443.2,45C447.5,47.7 453.5,52.6 456.7,55.7C459.8,58.9 464.5,64.9 467.2,69C469.9,73.1 473,79 474.1,82C475.2,85 476.8,90 477.6,93C478.4,96 479.4,102.3 479.7,107C480.1,112.9 479.8,117.9 478.7,123.5C477.8,127.9 475.2,136.9 472.9,143.5C470.7,150.1 466.8,160.4 464.2,166.5C461.7,172.6 454.1,188.5 447.4,202C440.6,215.5 430.3,235.1 424.5,245.5C418.6,255.9 412.3,266 410.4,267.8C408.3,269.7 405.5,271.2 403.2,271.6C401.2,271.9 398,271.9 396.2,271.6C394.5,271.3 391.8,269.9 390.2,268.7C388.7,267.4 384.3,260.7 380.4,253.9C376.5,247.1 370.2,235.9 366.5,229C362.7,222.1 355.3,207.7 350,197C344.8,186.3 338.3,172.6 335.8,166.5C333.3,160.4 329.3,150.1 327.1,143.5C324.8,136.9 322.2,127.9 321.3,123.5C320.2,117.9 319.9,112.9 320.3,107C320.6,102.3 321.6,96 322.4,93C323.2,90 324.8,85 325.9,82C327,79 330.2,73 333,68.7C335.7,64.5 340.6,58.5 343.7,55.3C346.9,52.2 352.9,47.5 357,44.8C361.1,42.1 367,39 370,37.9C373,36.8 378.4,35 382,34C386.3,32.8 392.2,32.2 399.2,32.1L399.3,32.1ZM384.2,84.6C381.2,86.2 377.5,89.1 375.9,91C374.4,92.9 372.1,96.5 370.9,99C369.2,102.5 368.7,105.3 368.7,112C368.6,119.8 368.9,121 372.1,126.9C374,130.4 377,134.4 378.6,135.8C380.2,137.1 383.8,139.4 386.6,140.8C390.8,143 392.9,143.4 400.1,143.4C407.3,143.4 409.4,143 413.6,140.8C416.3,139.4 420,137.1 421.6,135.8C423.2,134.4 426.2,130.4 428.1,126.9C431.3,121 431.6,119.8 431.5,112C431.5,104.8 431.1,102.7 428.9,98.5C427.5,95.7 425.2,92.2 423.9,90.5C422.5,88.8 418.7,86 415.5,84.3C410.9,81.7 408,80.9 402.6,80.6C398.7,80.3 394.2,80.4 392.6,80.9C391,81.3 387.2,82.9 384.2,84.6ZM31.9,192.1L44.8,198C51.8,201.3 93.2,220.3 215.6,276.8L216.1,480L208.8,476.7C204.9,474.8 165.2,456.3 120.6,435.5C76.1,414.8 38.5,396.8 37.2,395.6C35.9,394.5 34.2,392 33.5,390.3C32.3,387.6 32.1,369.7 32,289.6L31.9,192.1ZM345.3,225C345.8,225 347.4,227.3 349,230.2C350.5,233.1 356.7,244.2 362.7,254.8C368.8,265.7 375.4,276 377.6,278.3C379.8,280.5 383.8,283.4 386.6,284.6C389.3,285.9 394.1,287.2 397.1,287.6C401,288 404.2,287.7 408.1,286.5C411.1,285.6 414.2,284.6 414.8,284.4C415.8,284 416.1,294.7 416.1,335.4C416.1,376.8 415.8,387.6 414.7,390.2C414,392 412.3,394.4 411,395.6C409.7,396.8 371.2,415.2 325.6,436.5C279.9,457.8 240.2,476.3 232.1,479.9L232.6,276.9L288.6,251C319.4,236.7 344.9,225 345.3,225ZM224.1,96C226.5,96 239.5,101.3 267.1,113.9C299.4,128.6 306.7,132.2 307.3,134.1C307.7,135.4 309.9,142.1 312.2,148.9C314.5,155.8 319.3,168.2 322.8,176.4C326.4,184.7 331.3,195.4 333.7,200.2C336.1,205 338.1,209.3 338.1,209.7C338.1,210.1 312.6,222.3 224.6,263.1L132.8,220.8C82.4,197.5 41.4,178.1 41.8,177.8C42.3,177.4 81.3,159.4 128.6,137.9C175.9,116.3 215.9,98.1 217.6,97.3C219.2,96.6 222.2,96 224.1,96Z" style="fill:rgb(112,90,255);"/>
</svg>
